mtllib SUPPORT.mtl
usemtl SUPPORT
#Wavefront export of shape 1-1--SUPPORT

g Face_1
v 0.125 0.0 0.0
v -0.125 0.0 -1.85037e-17
v 0.122872 0.0 0.0229687
v 0.116559 0.0 0.0451552
v 0.106277 0.0 0.065804
v 0.0923761 0.0 0.084212
v 0.0753293 0.0 0.0997522
v 0.0557173 0.0 0.111895
v 0.0342079 0.0 0.120228
v 0.0115335 0.0 0.124467
v -0.0115335 0.0 0.124467
v -0.0342079 0.0 0.120228
v -0.0557173 0.0 0.111895
v -0.0753293 0.0 0.0997522
v -0.0923761 0.0 0.084212
v -0.106277 0.0 0.065804
v -0.116559 0.0 0.0451552
v -0.122872 0.0 0.0229687
v 0.122872 0.0 -0.0229687
v 0.116559 0.0 -0.0451552
v 0.106277 0.0 -0.065804
v 0.0923761 0.0 -0.084212
v 0.0753293 0.0 -0.0997522
v 0.0557173 0.0 -0.111895
v 0.0342079 0.0 -0.120228
v 0.0115335 0.0 -0.124467
v -0.0115335 0.0 -0.124467
v -0.0342079 0.0 -0.120228
v -0.0557173 0.0 -0.111895
v -0.0753293 0.0 -0.0997522
v -0.0923761 0.0 -0.084212
v -0.106277 0.0 -0.065804
v -0.116559 0.0 -0.0451552
v -0.122872 0.0 -0.0229687
vn 0 -1 -0
vn 0 -1 -0
vn 0 -1 -0
vn 0 -1 -0
vn 0 -1 -0
vn 0 -1 -0
vn 0 -1 -0
vn 0 -1 -0
vn 0 -1 -0
vn 0 -1 -0
vn 0 -1 -0
vn 0 -1 -0
vn 0 -1 -0
vn 0 -1 -0
vn 0 -1 -0
vn 0 -1 -0
vn 0 -1 -0
vn 0 -1 -0
vn 0 -1 -0
vn 0 -1 -0
vn 0 -1 -0
vn 0 -1 -0
vn 0 -1 -0
vn 0 -1 -0
vn 0 -1 -0
vn 0 -1 -0
vn 0 -1 -0
vn 0 -1 -0
vn 0 -1 -0
vn 0 -1 -0
vn 0 -1 -0
vn 0 -1 -0
vn 0 -1 -0
vn 0 -1 -0
f 22//22 6//6 7//7 
f 22//22 7//7 8//8 
f 22//22 8//8 9//9 
f 22//22 9//9 10//10 
f 22//22 10//10 11//11 
f 22//22 11//11 12//12 
f 22//22 12//12 13//13 
f 22//22 13//13 14//14 
f 22//22 14//14 15//15 
f 22//22 15//15 16//16 
f 22//22 16//16 17//17 
f 22//22 17//17 18//18 
f 22//22 18//18 2//2 
f 22//22 19//19 1//1 
f 22//22 20//20 19//19 
f 22//22 21//21 20//20 
f 22//22 24//24 23//23 
f 22//22 25//25 24//24 
f 22//22 26//26 25//25 
f 22//22 27//27 26//26 
f 22//22 28//28 27//27 
f 22//22 29//29 28//28 
f 22//22 30//30 29//29 
f 22//22 31//31 30//30 
f 22//22 32//32 31//31 
f 22//22 33//33 32//32 
f 22//22 34//34 33//33 
f 22//22 2//2 34//34 
f 22//22 1//1 3//3 
f 22//22 3//3 4//4 
f 22//22 4//4 5//5 
f 22//22 5//5 6//6 

g Face_2
v 0.125 0.05 0.0
v -0.125 0.05 -1.85037e-17
v 0.124467 0.05 0.0115335
v 0.122872 0.05 0.0229687
v 0.120228 0.05 0.0342079
v 0.116559 0.05 0.0451552
v 0.111895 0.05 0.0557173
v 0.106277 0.05 0.065804
v 0.0997522 0.05 0.0753293
v 0.0923761 0.05 0.084212
v 0.084212 0.05 0.0923761
v 0.0753293 0.05 0.0997522
v 0.065804 0.05 0.106277
v 0.0557173 0.05 0.111895
v 0.0451552 0.05 0.116559
v 0.0342079 0.05 0.120228
v 0.0229687 0.05 0.122872
v 0.0115335 0.05 0.124467
v 3.54096e-17 0.05 0.125
v -0.0115335 0.05 0.124467
v -0.0229687 0.05 0.122872
v -0.0342079 0.05 0.120228
v -0.0451552 0.05 0.116559
v -0.0557173 0.05 0.111895
v -0.065804 0.05 0.106277
v -0.0753293 0.05 0.0997522
v -0.084212 0.05 0.0923761
v -0.0923761 0.05 0.084212
v -0.0997522 0.05 0.0753293
v -0.106277 0.05 0.065804
v -0.111895 0.05 0.0557173
v -0.116559 0.05 0.0451552
v -0.120228 0.05 0.0342079
v -0.122872 0.05 0.0229687
v -0.124467 0.05 0.0115335
v -0.125 0.0 -1.85037e-17
v 0.125 0.0 0.0
v 0.122872 0.0 0.0229687
v 0.116559 0.0 0.0451552
v 0.106277 0.0 0.065804
v 0.0923761 0.0 0.084212
v 0.0753293 0.0 0.0997522
v 0.0557173 0.0 0.111895
v 0.0342079 0.0 0.120228
v 0.0115335 0.0 0.124467
v -0.0115335 0.0 0.124467
v -0.0342079 0.0 0.120228
v -0.0557173 0.0 0.111895
v -0.0753293 0.0 0.0997522
v -0.0923761 0.0 0.084212
v -0.106277 0.0 0.065804
v -0.116559 0.0 0.0451552
v -0.122872 0.0 0.0229687
vn 1 -0 2.44929e-16
vn -1 0 -1.22465e-16
vn 0.995734 -0 0.0922684
vn 0.982973 -0 0.18375
vn 0.961826 -0 0.273663
vn 0.932472 -0 0.361242
vn 0.895163 -0 0.445738
vn 0.850217 -0 0.526432
vn 0.798017 -0 0.602635
vn 0.739009 -0 0.673696
vn 0.673696 -0 0.739009
vn 0.602635 -0 0.798017
vn 0.526432 -0 0.850217
vn 0.445738 -0 0.895163
vn 0.361242 -0 0.932472
vn 0.273663 -0 0.961826
vn 0.18375 -0 0.982973
vn 0.0922684 -0 0.995734
vn -1.83697e-16 0 1
vn -0.0922684 0 0.995734
vn -0.18375 0 0.982973
vn -0.273663 0 0.961826
vn -0.361242 0 0.932472
vn -0.445738 0 0.895163
vn -0.526432 0 0.850217
vn -0.602635 0 0.798017
vn -0.673696 0 0.739009
vn -0.739009 0 0.673696
vn -0.798017 0 0.602635
vn -0.850217 0 0.526432
vn -0.895163 0 0.445738
vn -0.932472 0 0.361242
vn -0.961826 0 0.273663
vn -0.982973 0 0.18375
vn -0.995734 0 0.0922684
vn -1 0 -1.22465e-16
vn 1 -0 2.44929e-16
vn 0.982973 -0 0.18375
vn 0.932472 -0 0.361242
vn 0.850217 -0 0.526432
vn 0.739009 -0 0.673696
vn 0.602635 -0 0.798017
vn 0.445738 -0 0.895163
vn 0.273663 -0 0.961826
vn 0.0922684 -0 0.995734
vn -0.0922684 0 0.995734
vn -0.273663 0 0.961826
vn -0.445738 0 0.895163
vn -0.602635 0 0.798017
vn -0.739009 0 0.673696
vn -0.850217 0 0.526432
vn -0.932472 0 0.361242
vn -0.982973 0 0.18375
f 42//42 43//43 74//74 
f 41//41 74//74 73//73 
f 41//41 42//42 74//74 
f 40//40 41//41 73//73 
f 69//69 36//36 70//70 
f 69//69 70//70 87//87 
f 39//39 73//73 72//72 
f 39//39 40//40 73//73 
f 68//68 69//69 87//87 
f 38//38 39//39 72//72 
f 67//67 87//87 86//86 
f 67//67 68//68 87//87 
f 37//37 72//72 71//71 
f 37//37 38//38 72//72 
f 35//35 37//37 71//71 
f 66//66 67//67 86//86 
f 65//65 86//86 85//85 
f 65//65 66//66 86//86 
f 64//64 65//65 85//85 
f 63//63 85//85 84//84 
f 63//63 64//64 85//85 
f 62//62 63//63 84//84 
f 61//61 84//84 83//83 
f 61//61 62//62 84//84 
f 60//60 61//61 83//83 
f 59//59 83//83 82//82 
f 59//59 60//60 83//83 
f 58//58 59//59 82//82 
f 57//57 82//82 81//81 
f 57//57 58//58 82//82 
f 56//56 57//57 81//81 
f 55//55 56//56 81//81 
f 55//55 81//81 80//80 
f 54//54 55//55 80//80 
f 53//53 54//54 80//80 
f 53//53 80//80 79//79 
f 52//52 53//53 79//79 
f 51//51 52//52 79//79 
f 51//51 79//79 78//78 
f 50//50 51//51 78//78 
f 49//49 50//50 78//78 
f 49//49 78//78 77//77 
f 48//48 49//49 77//77 
f 47//47 48//48 77//77 
f 47//47 77//77 76//76 
f 46//46 47//47 76//76 
f 45//45 46//46 76//76 
f 45//45 76//76 75//75 
f 44//44 45//45 75//75 
f 43//43 75//75 74//74 
f 43//43 44//44 75//75 

g Face_3
v 0.125 0.0 0.0
v -0.125 0.0 -1.85037e-17
v 0.122872 0.0 -0.0229687
v 0.116559 0.0 -0.0451552
v 0.106277 0.0 -0.065804
v 0.0923761 0.0 -0.084212
v 0.0753293 0.0 -0.0997522
v 0.0557173 0.0 -0.111895
v 0.0342079 0.0 -0.120228
v 0.0115335 0.0 -0.124467
v -0.0115335 0.0 -0.124467
v -0.0342079 0.0 -0.120228
v -0.0557173 0.0 -0.111895
v -0.0753293 0.0 -0.0997522
v -0.0923761 0.0 -0.084212
v -0.106277 0.0 -0.065804
v -0.116559 0.0 -0.0451552
v -0.122872 0.0 -0.0229687
v -0.125 0.05 -1.85037e-17
v 0.125 0.05 0.0
v 0.124467 0.05 -0.0115335
v 0.122872 0.05 -0.0229687
v 0.120228 0.05 -0.0342079
v 0.116559 0.05 -0.0451552
v 0.111895 0.05 -0.0557173
v 0.106277 0.05 -0.065804
v 0.0997522 0.05 -0.0753293
v 0.0923761 0.05 -0.084212
v 0.084212 0.05 -0.0923761
v 0.0753293 0.05 -0.0997522
v 0.065804 0.05 -0.106277
v 0.0557173 0.05 -0.111895
v 0.0451552 0.05 -0.116559
v 0.0342079 0.05 -0.120228
v 0.0229687 0.05 -0.122872
v 0.0115335 0.05 -0.124467
v 3.54096e-17 0.05 -0.125
v -0.0115335 0.05 -0.124467
v -0.0229687 0.05 -0.122872
v -0.0342079 0.05 -0.120228
v -0.0451552 0.05 -0.116559
v -0.0557173 0.05 -0.111895
v -0.065804 0.05 -0.106277
v -0.0753293 0.05 -0.0997522
v -0.084212 0.05 -0.0923761
v -0.0923761 0.05 -0.084212
v -0.0997522 0.05 -0.0753293
v -0.106277 0.05 -0.065804
v -0.111895 0.05 -0.0557173
v -0.116559 0.05 -0.0451552
v -0.120228 0.05 -0.0342079
v -0.122872 0.05 -0.0229687
v -0.124467 0.05 -0.0115335
vn 1 -0 0
vn -1 0 -1.22465e-16
vn 0.982973 0 -0.18375
vn 0.932472 0 -0.361242
vn 0.850217 0 -0.526432
vn 0.739009 0 -0.673696
vn 0.602635 0 -0.798017
vn 0.445738 0 -0.895163
vn 0.273663 0 -0.961826
vn 0.0922684 0 -0.995734
vn -0.0922684 0 -0.995734
vn -0.273663 0 -0.961826
vn -0.445738 0 -0.895163
vn -0.602635 0 -0.798017
vn -0.739009 0 -0.673696
vn -0.850217 0 -0.526432
vn -0.932472 0 -0.361242
vn -0.982973 0 -0.18375
vn -1 0 -1.22465e-16
vn 1 -0 0
vn 0.995734 0 -0.0922684
vn 0.982973 0 -0.18375
vn 0.961826 0 -0.273663
vn 0.932472 0 -0.361242
vn 0.895163 0 -0.445738
vn 0.850217 0 -0.526432
vn 0.798017 0 -0.602635
vn 0.739009 0 -0.673696
vn 0.673696 0 -0.739009
vn 0.602635 0 -0.798017
vn 0.526432 0 -0.850217
vn 0.445738 0 -0.895163
vn 0.361242 0 -0.932472
vn 0.273663 0 -0.961826
vn 0.18375 0 -0.982973
vn 0.0922684 0 -0.995734
vn 2.83277e-16 0 -1
vn -0.0922684 0 -0.995734
vn -0.18375 0 -0.982973
vn -0.273663 0 -0.961826
vn -0.361242 0 -0.932472
vn -0.445738 0 -0.895163
vn -0.526432 0 -0.850217
vn -0.602635 0 -0.798017
vn -0.673696 0 -0.739009
vn -0.739009 0 -0.673696
vn -0.798017 0 -0.602635
vn -0.850217 0 -0.526432
vn -0.895163 0 -0.445738
vn -0.932472 0 -0.361242
vn -0.961826 0 -0.273663
vn -0.982973 0 -0.18375
vn -0.995734 0 -0.0922684
f 135//135 134//134 103//103 
f 136//136 103//103 104//104 
f 136//136 135//135 103//103 
f 137//137 136//136 104//104 
f 108//108 88//88 90//90 
f 108//108 107//107 88//88 
f 138//138 104//104 105//105 
f 138//138 137//137 104//104 
f 109//109 108//108 90//90 
f 139//139 138//138 105//105 
f 110//110 90//90 91//91 
f 110//110 109//109 90//90 
f 140//140 105//105 89//89 
f 140//140 139//139 105//105 
f 106//106 140//140 89//89 
f 111//111 110//110 91//91 
f 112//112 91//91 92//92 
f 112//112 111//111 91//91 
f 113//113 112//112 92//92 
f 114//114 92//92 93//93 
f 114//114 113//113 92//92 
f 115//115 114//114 93//93 
f 116//116 93//93 94//94 
f 116//116 115//115 93//93 
f 117//117 116//116 94//94 
f 118//118 94//94 95//95 
f 118//118 117//117 94//94 
f 119//119 118//118 95//95 
f 120//120 95//95 96//96 
f 120//120 119//119 95//95 
f 121//121 120//120 96//96 
f 122//122 121//121 96//96 
f 122//122 96//96 97//97 
f 123//123 122//122 97//97 
f 124//124 123//123 97//97 
f 124//124 97//97 98//98 
f 125//125 124//124 98//98 
f 126//126 98//98 99//99 
f 126//126 125//125 98//98 
f 127//127 126//126 99//99 
f 128//128 99//99 100//100 
f 128//128 127//127 99//99 
f 129//129 128//128 100//100 
f 130//130 100//100 101//101 
f 130//130 129//129 100//100 
f 131//131 130//130 101//101 
f 132//132 101//101 102//102 
f 132//132 131//131 101//101 
f 133//133 132//132 102//102 
f 134//134 102//102 103//103 
f 134//134 133//133 102//102 

g Face_4
v 0.125 0.05 0.0
v -0.125 0.05 -1.85037e-17
v 0.124467 0.05 0.0115335
v 0.122872 0.05 0.0229687
v 0.120228 0.05 0.0342079
v 0.116559 0.05 0.0451552
v 0.111895 0.05 0.0557173
v 0.106277 0.05 0.065804
v 0.0997522 0.05 0.0753293
v 0.0923761 0.05 0.084212
v 0.084212 0.05 0.0923761
v 0.0753293 0.05 0.0997522
v 0.065804 0.05 0.106277
v 0.0557173 0.05 0.111895
v 0.0451552 0.05 0.116559
v 0.0342079 0.05 0.120228
v 0.0229687 0.05 0.122872
v 0.0115335 0.05 0.124467
v 3.54096e-17 0.05 0.125
v -0.0115335 0.05 0.124467
v -0.0229687 0.05 0.122872
v -0.0342079 0.05 0.120228
v -0.0451552 0.05 0.116559
v -0.0557173 0.05 0.111895
v -0.065804 0.05 0.106277
v -0.0753293 0.05 0.0997522
v -0.084212 0.05 0.0923761
v -0.0923761 0.05 0.084212
v -0.0997522 0.05 0.0753293
v -0.106277 0.05 0.065804
v -0.111895 0.05 0.0557173
v -0.116559 0.05 0.0451552
v -0.120228 0.05 0.0342079
v -0.122872 0.05 0.0229687
v -0.124467 0.05 0.0115335
v 0.124467 0.05 -0.0115335
v 0.122872 0.05 -0.0229687
v 0.120228 0.05 -0.0342079
v 0.116559 0.05 -0.0451552
v 0.111895 0.05 -0.0557173
v 0.106277 0.05 -0.065804
v 0.0997522 0.05 -0.0753293
v 0.0923761 0.05 -0.084212
v 0.084212 0.05 -0.0923761
v 0.0753293 0.05 -0.0997522
v 0.065804 0.05 -0.106277
v 0.0557173 0.05 -0.111895
v 0.0451552 0.05 -0.116559
v 0.0342079 0.05 -0.120228
v 0.0229687 0.05 -0.122872
v 0.0115335 0.05 -0.124467
v 3.54096e-17 0.05 -0.125
v -0.0115335 0.05 -0.124467
v -0.0229687 0.05 -0.122872
v -0.0342079 0.05 -0.120228
v -0.0451552 0.05 -0.116559
v -0.0557173 0.05 -0.111895
v -0.065804 0.05 -0.106277
v -0.0753293 0.05 -0.0997522
v -0.084212 0.05 -0.0923761
v -0.0923761 0.05 -0.084212
v -0.0997522 0.05 -0.0753293
v -0.106277 0.05 -0.065804
v -0.111895 0.05 -0.0557173
v -0.116559 0.05 -0.0451552
v -0.120228 0.05 -0.0342079
v -0.122872 0.05 -0.0229687
v -0.124467 0.05 -0.0115335
v -0.02 0.05 -0.123
v -0.02 0.05 -0.083
v 0.02 0.05 -0.083
v 0.02 0.05 -0.123
vn -0 1 0
vn -0 1 0
vn -0 1 0
vn -0 1 0
vn -0 1 0
vn -0 1 0
vn -0 1 0
vn -0 1 0
vn -0 1 0
vn -0 1 0
vn -0 1 0
vn -0 1 0
vn -0 1 0
vn -0 1 0
vn -0 1 0
vn -0 1 0
vn -0 1 0
vn -0 1 0
vn -0 1 0
vn -0 1 0
vn -0 1 0
vn -0 1 0
vn -0 1 0
vn -0 1 0
vn -0 1 0
vn -0 1 0
vn -0 1 0
vn -0 1 0
vn -0 1 0
vn -0 1 0
vn -0 1 0
vn -0 1 0
vn -0 1 0
vn -0 1 0
vn -0 1 0
vn -0 1 0
vn -0 1 0
vn -0 1 0
vn -0 1 0
vn -0 1 0
vn -0 1 0
vn -0 1 0
vn -0 1 0
vn -0 1 0
vn -0 1 0
vn -0 1 0
vn -0 1 0
vn -0 1 0
vn -0 1 0
vn -0 1 0
vn -0 1 0
vn -0 1 0
vn -0 1 0
vn -0 1 0
vn -0 1 0
vn -0 1 0
vn -0 1 0
vn -0 1 0
vn -0 1 0
vn -0 1 0
vn -0 1 0
vn -0 1 0
vn -0 1 0
vn -0 1 0
vn -0 1 0
vn -0 1 0
vn -0 1 0
vn -0 1 0
vn -0 1 0
vn -0 1 0
vn -0 1 0
vn -0 1 0
f 196//196 197//197 210//210 
f 195//195 196//196 210//210 
f 194//194 195//195 210//210 
f 209//209 194//194 210//210 
f 211//211 145//145 144//144 
f 211//211 146//146 145//145 
f 211//211 147//147 146//146 
f 211//211 148//148 147//147 
f 211//211 149//149 148//148 
f 211//211 150//150 149//149 
f 211//211 151//151 150//150 
f 211//211 152//152 151//151 
f 211//211 153//153 152//152 
f 211//211 154//154 153//153 
f 211//211 155//155 154//154 
f 211//211 156//156 155//155 
f 211//211 157//157 156//156 
f 211//211 158//158 157//157 
f 211//211 159//159 158//158 
f 211//211 210//210 159//159 
f 143//143 211//211 144//144 
f 193//193 194//194 209//209 
f 141//141 211//211 143//143 
f 176//176 211//211 141//141 
f 177//177 211//211 176//176 
f 190//190 212//212 211//211 
f 190//190 191//191 212//212 
f 178//178 211//211 177//177 
f 189//189 190//190 211//211 
f 179//179 211//211 178//178 
f 188//188 189//189 211//211 
f 180//180 211//211 179//179 
f 187//187 188//188 211//211 
f 186//186 187//187 211//211 
f 181//181 211//211 180//180 
f 182//182 211//211 181//181 
f 185//185 186//186 211//211 
f 183//183 211//211 182//182 
f 184//184 185//185 211//211 
f 184//184 211//211 183//183 
f 209//209 212//212 191//191 
f 209//209 191//191 192//192 
f 209//209 192//192 193//193 
f 210//210 160//160 159//159 
f 210//210 161//161 160//160 
f 210//210 162//162 161//161 
f 210//210 163//163 162//162 
f 210//210 164//164 163//163 
f 210//210 165//165 164//164 
f 210//210 166//166 165//165 
f 210//210 167//167 166//166 
f 210//210 168//168 167//167 
f 210//210 169//169 168//168 
f 210//210 170//170 169//169 
f 210//210 171//171 170//170 
f 210//210 172//172 171//171 
f 210//210 173//173 172//172 
f 210//210 174//174 173//173 
f 210//210 175//175 174//174 
f 210//210 142//142 175//175 
f 210//210 197//197 198//198 
f 210//210 198//198 199//199 
f 210//210 199//199 200//200 
f 210//210 200//200 201//201 
f 210//210 201//201 202//202 
f 210//210 202//202 203//203 
f 210//210 203//203 204//204 
f 210//210 204//204 205//205 
f 210//210 205//205 206//206 
f 210//210 206//206 207//207 
f 210//210 207//207 208//208 
f 210//210 208//208 142//142 

g Face_5
v -0.02 0.342361 -0.083
v -0.02 0.297639 -0.083
v -0.02 0.05 -0.083
v -0.02 0.05 -0.123
v -0.02 0.35 -0.123
v -0.02 0.35 -0.083
vn -1 0 0
vn -1 0 0
vn -1 0 0
vn -1 0 0
vn -1 0 0
vn -1 0 0
f 214//214 216//216 215//215 
f 217//217 216//216 214//214 
f 213//213 217//217 214//214 
f 218//218 217//217 213//213 

g Face_6
v -0.02 0.342361 -0.083
v -0.02 0.297639 -0.083
v -0.03 0.32 -0.083
v -0.0254063 0.335954 -0.083
v -0.0288287 0.328301 -0.083
v -0.0288287 0.311699 -0.083
v -0.0254063 0.304046 -0.083
vn -0 -0 -1
vn -0 -0 -1
vn -0 -0 -1
vn -0 -0 -1
vn -0 -0 -1
vn -0 -0 -1
vn -0 -0 -1
f 219//219 223//223 222//222 
f 219//219 221//221 223//223 
f 219//219 224//224 221//221 
f 219//219 225//225 224//224 
f 219//219 220//220 225//225 

g Face_7
v 0.02 0.342361 -0.083
v 0.02 0.297639 -0.083
v 0.03 0.32 -0.083
v 0.0254063 0.304046 -0.083
v 0.0288287 0.311699 -0.083
v 0.0288287 0.328301 -0.083
v 0.0254063 0.335954 -0.083
vn -0 -0 -1
vn -0 -0 -1
vn -0 -0 -1
vn -0 -0 -1
vn -0 -0 -1
vn -0 -0 -1
vn -0 -0 -1
f 226//226 229//229 227//227 
f 226//226 230//230 229//229 
f 226//226 228//228 230//230 
f 226//226 231//231 228//228 
f 226//226 232//232 231//231 

g Face_8
v 0.0 0.35 -0.083
v -0.02 0.342361 -0.083
v -0.00722553 0.349117 -0.083
v -0.0140257 0.346519 -0.083
v -0.03 0.32 -0.083
v -0.0254063 0.335954 -0.083
v -0.0288287 0.328301 -0.083
v -0.03 0.32 -0.058
v 0.03 0.32 -0.058
v 0.0294236 0.325853 -0.058
v 0.0277164 0.331481 -0.058
v 0.0249441 0.336667 -0.058
v 0.0212132 0.341213 -0.058
v 0.0166671 0.344944 -0.058
v 0.0114805 0.347716 -0.058
v 0.00585271 0.349424 -0.058
v 1.83697e-18 0.35 -0.058
v -0.00585271 0.349424 -0.058
v -0.0114805 0.347716 -0.058
v -0.0166671 0.344944 -0.058
v -0.0212132 0.341213 -0.058
v -0.0249441 0.336667 -0.058
v -0.0277164 0.331481 -0.058
v -0.0294236 0.325853 -0.058
v 0.03 0.32 -0.083
v 0.02 0.342361 -0.083
v 0.0288287 0.328301 -0.083
v 0.0254063 0.335954 -0.083
v 0.0140257 0.346519 -0.083
v 0.00722553 0.349117 -0.083
vn 6.12323e-17 1 -0
vn -0.666667 0.745356 0
vn -0.240851 0.970562 0
vn -0.467522 0.883982 0
vn -1 1.22465e-16 0
vn -0.846876 0.53179 0
vn -0.960957 0.276698 0
vn -1 1.22465e-16 0
vn 1 0 0
vn 0.980785 0.19509 -0
vn 0.92388 0.382683 -0
vn 0.83147 0.55557 -0
vn 0.707107 0.707107 -0
vn 0.55557 0.83147 -0
vn 0.382683 0.92388 -0
vn 0.19509 0.980785 -0
vn 6.12323e-17 1 -0
vn -0.19509 0.980785 0
vn -0.382683 0.92388 0
vn -0.55557 0.83147 0
vn -0.707107 0.707107 0
vn -0.83147 0.55557 0
vn -0.92388 0.382683 0
vn -0.980785 0.19509 0
vn 1 0 0
vn 0.666667 0.745356 -0
vn 0.960957 0.276698 -0
vn 0.846876 0.53179 -0
vn 0.467522 0.883982 -0
vn 0.240851 0.970562 -0
f 242//242 241//241 257//257 
f 242//242 257//257 259//259 
f 243//243 259//259 260//260 
f 243//243 242//242 259//259 
f 244//244 243//243 260//260 
f 245//245 260//260 258//258 
f 245//245 244//244 260//260 
f 246//246 258//258 261//261 
f 246//246 245//245 258//258 
f 247//247 261//261 262//262 
f 247//247 246//246 261//261 
f 248//248 262//262 233//233 
f 248//248 247//247 262//262 
f 249//249 248//248 233//233 
f 250//250 233//233 235//235 
f 250//250 249//249 233//233 
f 251//251 235//235 236//236 
f 251//251 250//250 235//235 
f 252//252 236//236 234//234 
f 252//252 251//251 236//236 
f 253//253 234//234 238//238 
f 253//253 252//252 234//234 
f 254//254 253//253 238//238 
f 255//255 238//238 239//239 
f 255//255 254//254 238//238 
f 256//256 239//239 237//237 
f 256//256 255//255 239//239 
f 240//240 256//256 237//237 

g Face_9
v 0.02 0.342361 -0.083
v 0.0 0.35 -0.083
v 0.0140257 0.346519 -0.083
v 0.00722553 0.349117 -0.083
v 0.02 0.35 -0.083
vn 0 0 1
vn 0 0 1
vn 0 0 1
vn 0 0 1
vn 0 0 1
f 267//267 265//265 263//263 
f 267//267 266//266 265//265 
f 267//267 264//264 266//266 

g Face_10
v 0.0 0.35 -0.083
v -0.02 0.342361 -0.083
v -0.00722553 0.349117 -0.083
v -0.0140257 0.346519 -0.083
v -0.02 0.35 -0.083
vn 0 0 1
vn 0 0 1
vn 0 0 1
vn 0 0 1
vn 0 0 1
f 271//271 272//272 269//269 
f 270//270 272//272 271//271 
f 268//268 272//272 270//270 

g Face_11
v -0.02 0.297639 -0.083
v 0.02 0.297639 -0.083
v -0.00722553 0.290883 -0.083
v 0.00722553 0.290883 -0.083
v 0.02 0.05 -0.083
v -0.02 0.05 -0.083
vn 0 0 1
vn 0 0 1
vn 0 0 1
vn 0 0 1
vn 0 0 1
vn 0 0 1
f 275//275 273//273 278//278 
f 276//276 278//278 277//277 
f 276//276 275//275 278//278 
f 274//274 276//276 277//277 

g Face_12
v -0.02 0.35 -0.083
v 0.0 0.35 -0.083
v -0.02 0.35 -0.123
v 0.02 0.35 -0.123
v 0.02 0.35 -0.083
vn 0 1 0
vn 0 1 0
vn 0 1 0
vn 0 1 0
vn 0 1 0
f 280//280 281//281 279//279 
f 280//280 282//282 281//281 
f 283//283 282//282 280//280 

g Face_13
v 0.02 0.05 -0.123
v -0.02 0.05 -0.123
v 0.02 0.35 -0.123
v -0.02 0.35 -0.123
vn 0 0 -1
vn 0 0 -1
vn 0 0 -1
vn 0 0 -1
f 287//287 284//284 285//285 
f 287//287 286//286 284//284 

g Face_14
v 0.02 0.342361 -0.083
v 0.02 0.297639 -0.083
v 0.02 0.35 -0.083
v 0.02 0.35 -0.123
v 0.02 0.05 -0.123
v 0.02 0.05 -0.083
vn 1 -0 0
vn 1 -0 0
vn 1 -0 0
vn 1 -0 0
vn 1 -0 0
vn 1 -0 0
f 289//289 293//293 292//292 
f 291//291 288//288 289//289 
f 291//291 290//290 288//288 
f 291//291 289//289 292//292 

g Face_15
v 0.02 0.297639 -0.083
v 0.03 0.32 -0.083
v 0.0254063 0.304046 -0.083
v 0.0288287 0.311699 -0.083
v 0.03 0.32 -0.058
v -0.03 0.32 -0.058
v -0.0294236 0.314147 -0.058
v -0.0277164 0.308519 -0.058
v -0.0249441 0.303333 -0.058
v -0.0212132 0.298787 -0.058
v -0.0166671 0.295056 -0.058
v -0.0114805 0.292284 -0.058
v -0.00585271 0.290576 -0.058
v -1.83697e-18 0.29 -0.058
v 0.00585271 0.290576 -0.058
v 0.0114805 0.292284 -0.058
v 0.0166671 0.295056 -0.058
v 0.0212132 0.298787 -0.058
v 0.0249441 0.303333 -0.058
v 0.0277164 0.308519 -0.058
v 0.0294236 0.314147 -0.058
v -0.03 0.32 -0.083
v -0.02 0.297639 -0.083
v -0.0288287 0.311699 -0.083
v -0.0254063 0.304046 -0.083
v -0.00722553 0.290883 -0.083
v 0.00722553 0.290883 -0.083
vn 0.666667 -0.745356 0
vn 1 -2.44929e-16 0
vn 0.846876 -0.53179 0
vn 0.960957 -0.276698 0
vn 1 -2.44929e-16 0
vn -1 1.22465e-16 0
vn -0.980785 -0.19509 0
vn -0.92388 -0.382683 0
vn -0.83147 -0.55557 0
vn -0.707107 -0.707107 0
vn -0.55557 -0.83147 0
vn -0.382683 -0.92388 0
vn -0.19509 -0.980785 0
vn -1.83697e-16 -1 0
vn 0.19509 -0.980785 0
vn 0.382683 -0.92388 0
vn 0.55557 -0.83147 0
vn 0.707107 -0.707107 0
vn 0.83147 -0.55557 0
vn 0.92388 -0.382683 0
vn 0.980785 -0.19509 0
vn -1 1.22465e-16 0
vn -0.666667 -0.745356 0
vn -0.960957 -0.276698 0
vn -0.846876 -0.53179 0
vn -0.240851 -0.970562 0
vn 0.240851 -0.970562 0
f 300//300 299//299 315//315 
f 300//300 315//315 317//317 
f 301//301 317//317 318//318 
f 301//301 300//300 317//317 
f 302//302 301//301 318//318 
f 303//303 318//318 316//316 
f 303//303 302//302 318//318 
f 304//304 303//303 316//316 
f 305//305 316//316 319//319 
f 305//305 304//304 316//316 
f 306//306 305//305 319//319 
f 307//307 319//319 320//320 
f 307//307 306//306 319//319 
f 308//308 307//307 320//320 
f 309//309 320//320 294//294 
f 309//309 308//308 320//320 
f 310//310 309//309 294//294 
f 311//311 294//294 296//296 
f 311//311 310//310 294//294 
f 312//312 311//311 296//296 
f 313//313 296//296 297//297 
f 313//313 312//312 296//296 
f 314//314 297//297 295//295 
f 314//314 313//313 297//297 
f 298//298 314//314 295//295 

g Face_16
v 0.03 0.32 -0.058
v -0.03 0.32 -0.058
v 0.0294236 0.325853 -0.058
v 0.0277164 0.331481 -0.058
v 0.0249441 0.336667 -0.058
v 0.0212132 0.341213 -0.058
v 0.0166671 0.344944 -0.058
v 0.0114805 0.347716 -0.058
v 0.00585271 0.349424 -0.058
v 1.83697e-18 0.35 -0.058
v -0.00585271 0.349424 -0.058
v -0.0114805 0.347716 -0.058
v -0.0166671 0.344944 -0.058
v -0.0212132 0.341213 -0.058
v -0.0249441 0.336667 -0.058
v -0.0277164 0.331481 -0.058
v -0.0294236 0.325853 -0.058
v -0.0294236 0.314147 -0.058
v -0.0277164 0.308519 -0.058
v -0.0249441 0.303333 -0.058
v -0.0212132 0.298787 -0.058
v -0.0166671 0.295056 -0.058
v -0.0114805 0.292284 -0.058
v -0.00585271 0.290576 -0.058
v -1.83697e-18 0.29 -0.058
v 0.00585271 0.290576 -0.058
v 0.0114805 0.292284 -0.058
v 0.0166671 0.295056 -0.058
v 0.0212132 0.298787 -0.058
v 0.0249441 0.303333 -0.058
v 0.0277164 0.308519 -0.058
v 0.0294236 0.314147 -0.058
vn 0 0 1
vn 0 0 1
vn 0 0 1
vn 0 0 1
vn 0 0 1
vn 0 0 1
vn 0 0 1
vn 0 0 1
vn 0 0 1
vn 0 0 1
vn 0 0 1
vn 0 0 1
vn 0 0 1
vn 0 0 1
vn 0 0 1
vn 0 0 1
vn 0 0 1
vn 0 0 1
vn 0 0 1
vn 0 0 1
vn 0 0 1
vn 0 0 1
vn 0 0 1
vn 0 0 1
vn 0 0 1
vn 0 0 1
vn 0 0 1
vn 0 0 1
vn 0 0 1
vn 0 0 1
vn 0 0 1
vn 0 0 1
f 326//326 321//321 323//323 
f 326//326 323//323 324//324 
f 326//326 324//324 325//325 
f 326//326 327//327 328//328 
f 326//326 328//328 329//329 
f 326//326 329//329 330//330 
f 326//326 330//330 331//331 
f 326//326 331//331 332//332 
f 326//326 332//332 333//333 
f 326//326 333//333 334//334 
f 326//326 334//334 335//335 
f 326//326 335//335 336//336 
f 326//326 336//336 337//337 
f 326//326 337//337 322//322 
f 326//326 322//322 338//338 
f 326//326 338//338 339//339 
f 326//326 339//339 340//340 
f 326//326 340//340 341//341 
f 326//326 341//341 342//342 
f 326//326 342//342 343//343 
f 326//326 343//343 344//344 
f 326//326 344//344 345//345 
f 326//326 345//345 346//346 
f 326//326 346//346 347//347 
f 326//326 347//347 348//348 
f 326//326 348//348 349//349 
f 326//326 349//349 350//350 
f 326//326 350//350 351//351 
f 326//326 351//351 352//352 
f 326//326 352//352 321//321 

